<?xml version="1.0" encoding="iso-8859-1"?>
<!-- Generator: Adobe Illustrator 16.0.0, SVG Export Plug-In . SVG Version: 6.00 Build 0)  -->
<!DOCTYPE svg PUBLIC "-//W3C//DTD SVG 1.1//EN" "http://www.w3.org/Graphics/SVG/1.1/DTD/svg11.dtd">
<svg version="1.1" id="Ebene_1" xmlns="http://www.w3.org/2000/svg" xmlns:xlink="http://www.w3.org/1999/xlink" x="0px" y="0px"
	 width="515.579px" height="630.579px" viewBox="0 0 515.579 630.579" style="enable-background:new 0 0 515.579 630.579;"
	 xml:space="preserve">
<g style="enable-background:new    ;">
	<path style="fill:none;" d=""/>
	<path style="fill:#009846;" d="M331.424,555.637c0-13.431-4.396-26.724-11.119-37.348c-3.07-4.881-5.858-9.124-9.318-13.719
		c-1.784-2.372-3.124-4.102-4.909-6.325c-11.804-14.825-25.077-28.953-37.111-43.831c-1.979-2.439-9.016-11.079-9.638-13.403h-1.768
		c-0.571,2.127-3.062,4.862-4.477,6.75c-7.247,9.677-18.446,22.604-26.387,31.517l-10.637,12.406
		c-10.292,11.521-21.504,27.938-26.879,42.254c-8.364,22.32-1.448,51.574,12.69,67.338l4.522,4.932
		c3.393,2.839,6.231,5.596,9.834,7.895c26.35,16.841,63.059,15.979,88.862-3.257C321.241,598.804,331.424,576.042,331.424,555.637
		L331.424,555.637z"/>
	<path style="fill:#009846;" d="M349.724,447.509c0-23.322-12.753-45.042-25.229-61.622l-16.271-20.357
		c-7.635-8.198-20.324-24.13-26.888-31.021c-4.43-4.646-19.689-24.47-22.6-28.807c-1.839,1.234-1.99,1.844-3.305,3.78
		l-42.928,51.613c-8.928,9.372-25.061,30.993-31.288,41.391c-13.991,23.379-18.362,47.302-9.259,74.493
		c3.199,9.562,6.601,16.028,11.745,23.71c1.667-1.121,3.175-3.653,4.488-5.56l9.28-11.986c1.701-2.007,3.259-3.672,4.884-5.748
		l24.611-28.569c7.281-8.353,22.616-29.831,29.289-39.846c0.924-1.395,1.172-1.95,2.481-2.828
		c7.315,10.924,22.23,32.396,31.195,42.674l38.527,45.96c1.276,1.822,2.965,4.722,4.729,5.903
		c4.711-7.027,8.596-14.26,11.594-23.265C347.499,469.292,349.724,458.011,349.724,447.509z"/>
	<path style="fill:#009846;" d="M258.737,191.667l-38.993,46.68c-1.696,2.206-3.788,4.377-5.728,6.68
		c-15.65,18.598-31.498,40.182-31.498,66.588c1.785,0.477,5.253,4.289,8.101,6.671l23.809,21.099l44.31-56.727
		c1.713,2.56,3.166,4.721,5.077,7.343l5.098,7.311c8.684,13.047,15.654,20.41,24.603,31.524c2.612,3.238,6.706,7.191,8.948,10.549
		l29.402-26.138c1.906-1.821,2.822-1.888,2.524-5.7c-1.482-18.036-8.517-31.674-18.338-45.563
		c-4.695-6.642-19.35-24.686-24.964-30.58C283.659,223.601,264.086,199.653,258.737,191.667z"/>
	<path style="fill:#009846;" d="M2.303,360.654c0.761,3.229,5.019,10.448,6.706,13.973c10.149,21.135,21.975,55.204,25.804,78.19
		c1.915,11.455,4.128,24.646,4.128,37.826c7.139-3.429,37.775-7.091,46.678-7.091c29.65,0,48.445,3.706,74.371,14.257
		c2.516,1.021,5.455,2.792,8.348,3.466c-9.069-13.54-14.479-34.286-14.726-51.448c-0.072-4.766-5.199-7.426-8.769-10.73
		c-1.742-1.614-2.977-3.08-4.707-4.747l-7.588-6.589c-1.322-1.026-1.6-1.52-2.788-2.527c-15.957-13.509-38.271-29.472-56.944-38.777
		c-21.118-10.527-31.607-15.346-54.762-22.052C14.561,363.39,5.688,360.729,2.303,360.654z"/>
	<path style="fill:#009846;" d="M421.819,483.552c17.666,0,28.449,0.529,45.267,4.363c3.125,0.716,8.621,1.656,10.863,2.728
		c0-30.761,11.145-72.658,23.461-101.204l13.169-28.785c-9.692,0.217-46.787,13.925-57.13,19.096
		c-22.729,11.382-27.425,13.939-48.391,28.409c-7.748,5.348-14.42,11.017-21.601,16.81c-1.024,0.84-1.415,1.394-2.456,2.278
		l-17.691,15.979c-5.144,5.158-3.767,2.616-4.561,14.349c-0.953,14.205-7.025,32.997-14.197,43.7
		c2.806-0.65,5.258-2.179,7.933-3.294c6.916-2.904,18.459-7.007,25.501-8.764C393.483,486.34,407.928,483.552,421.819,483.552z"/>
	<path style="fill:#009846;" d="M200.839,627.131v-1.184c-1.688-0.449-6.144-4.159-7.546-5.457
		c-16.439-15.226-28.504-38.725-28.504-62.489c0-27.399,6.567-30.297,8.868-40.18c-3.426-0.8-38.17-22.453-77.994-22.453
		c-27.399,0-39.632,1.892-64.768,10.268c-2.306,0.771-13.563,4.322-15,6.277c4.208,0.353,19.702,8.682,23.751,11.104
		c10.431,6.248,21.516,14.48,30.153,23.028c1.747,1.728,2.952,2.328,4.745,4.115l8.57,9.16
		c18.002,19.465,20.572,28.634,48.081,49.405c10.741,8.115,32.846,19.587,51.321,19.587
		C194.205,628.314,191.433,627.917,200.839,627.131z"/>
	<path style="fill:#009846;" d="M500.99,511.914c-1.096-1.501-4.165-2.255-6.752-3.292c-2.885-1.159-4.729-1.816-7.794-2.841
		c-39.229-13.056-68.79-14.075-108.006-2.978c-6.354,1.791-12.547,4.292-18.065,6.755l-17.145,8.264
		c2.297,9.839,8.86,13.051,8.86,40.18c0,25.532-13.219,49.818-32.086,65.401c-1.251,1.041-2.397,2.136-3.951,2.545v1.184
		c9.406,0.785,6.635,1.183,18.32,1.183c20.047,0,45.867-13.555,60.993-27.038c3.271-2.917,6.067-5.466,9.175-8.564
		c11.329-11.342,13.332-14.935,22.73-25.718c1.008-1.165,1.079-1.495,2.082-2.635l12.69-13.901
		c9.204-9.202,23.931-20.631,34.827-27.213C481.027,520.743,496.699,512.27,500.99,511.914z"/>
	<path style="fill:#009846;" d="M205.563,348.838l-72.229-65.444c-10.544-10.682-5.912-4.765-9.662,6.001
		c-3.725,10.673-15.764,31.502-21.911,42.497c-5.605,10.032-18.258,35.8-19.094,45.895c13.315,7.05,26.455,15.547,38.233,24.397
		c6.202,4.656,11.586,8.868,17.489,13.827l12.673,10.956c1.613,1.497,2.516,2.815,4.279,4.002
		c0.979-11.779,13.655-35.257,20.925-45.25c2.485-3.414,4.514-6.19,7.012-9.535l14.857-18.234
		C200.763,354.605,203.253,352.289,205.563,348.838z"/>
	<path style="fill:#009846;" d="M434.223,377.787c-0.848-10.166-15.616-40.776-21.97-51.29c-1.112-1.845-2.209-3.697-3.242-5.626
		l-9.854-17.914c-2.1-4.129-4.04-8.488-5.619-12.697c-0.823-2.188-1.6-4.765-2.112-7.351c-1.554-7.959,2.012-7.721-12.009,4.619
		l-38.41,34.864c-3.141,2.767-27.551,25.285-29.684,25.855c0.529,2.245,3.368,5.192,5.186,7.227
		c8.508,9.552,16.415,19.566,23.771,29.988c4.783,6.79,8.524,12.925,12.409,20.689c2.666,5.341,8.276,17.886,8.859,24.817
		l12.229-10.817c0.92-0.772,1.218-1.232,2.129-2.007c9.293-7.859,27.521-22.101,38.254-28.513
		C420.866,385.63,427.21,381.5,434.223,377.787z"/>
	<path style="fill:#009846;" d="M329.639,194.032c0-6.477-9.838-23.331-13.588-28.952l-8.948-12.328
		c-1.571-2.113-3.02-3.852-4.767-5.859l-12.194-14.397c-0.915-1.139-1.621-1.646-2.54-2.784l-7.412-8.533
		c-1.096-1.288-1.146-1.615-2.401-2.925c-1.659-1.743-3.46-3.949-4.871-5.758c-1.57-2.015-3.158-3.803-4.816-5.824l-9.364-12.495
		l-43.902,52.402c-8.755,10.399-15.512,19.193-21.684,31.498c-1.356,2.718-5.904,12.535-5.904,15.954
		c0,2.197,10.523,13.312,12.576,15.777l6.777,7.413c2.638,2.581,4.221,5.515,7.235,7.535l14.356-16.368
		c1.256-1.479,1.722-1.797,3.028-3.469c6.122-7.827,10.456-12.19,16.767-21.646l10.75-14.647
		c3.347,6.305,24.699,34.096,29.395,39.143c2.562,2.754,13.059,15.743,14.924,16.987l13.685-14.684
		C318.865,207.41,329.639,196.375,329.639,194.032z"/>
	<path style="fill:#009846;" d="M204.971,234.799l-62.937-74.732c-1.277-1.729-0.491-1.5-2.646-2.078
		c-0.542,2.025-23.344,35.009-25.527,38.292c-2.956,4.43-5.37,8.502-8.271,12.998c-4.858,7.527-11.091,19.118-14.823,27.713
		c-3.519,8.078-8.692,22.823-8.692,33.849c4.729,1.104,24.443,16.36,27.769,17.137c1.764-7.589,3.036-7.382,2.957-18.314
		c-0.051-6.569,0.667-14.489,1.184-20.684c2.373,0.635,10.427,9.45,13.765,12.234l41.773,37.988
		c0.769-1.593,1.835-7.549,2.478-9.923c3.511-13.007,13.769-29.094,21.999-40.044C195.41,247.352,204.518,236.502,204.971,234.799z"
		/>
	<path style="fill:#009846;" d="M402.915,248.389l1.802,30.69c0.265,3.454,1.608,5.837,2.33,8.898
		c3.511-0.82,22.818-15.98,27.777-17.137c0-23.68-16.826-49.892-27.584-68.135c-4.271-7.219-15.902-23.879-21.462-31.724
		c-1.482-2.073-2.768-4.147-4.25-6.375c-1.238-1.831-3.489-4.602-4.026-6.618c-2.15,0.577-1.818,0.975-4.48,4.385
		c-6.248,8.031-39.69,49.57-48.253,58.108l-12.845,14.316c0.475,1.827,1.196,2.117,2.348,3.552c1.066,1.337,1.923,2.192,2.964,3.534
		c8.672,11.127,18.796,24.752,24.142,37.899c1.234,3.015,2.321,5.736,3.3,9.111c0.706,2.427,1.961,8.775,2.692,10.307
		L402.915,248.389z"/>
	<path style="fill:#009846;" d="M258.737,2c-1.646,1.103-4.404,5.291-5.82,7.178l-20.626,24.876
		c-1.344,1.434-1.512,2.095-2.943,3.556l-18.212,21.368c-7.811,9.944-9.662,12.896-15.99,23.04
		c-1.306,2.091-1.524,2.095-0.714,4.306l6.202,13.369c1.395,2.814,2.998,5.753,4.687,8.313l10.88,15.715
		c2.637-0.705,9.007-9.714,11.375-12.26c8.47-9.111,18.96-23.208,25.725-33.36l5.438-6.967c7.97,11.899,23.184,32.75,33.24,43.574
		c1.307,1.417,1.537,1.725,2.722,3.19c1.356,1.707,4.174,5.334,6,5.823c0.491-1.849,1.307-2.175,2.612-3.882
		c6.396-8.348,13.021-18.905,16.956-28.533c2.259-5.524,3.565-5.789,1.713-8.921c-5.434-9.195-9.389-14.644-15.969-23.071
		c-1.928-2.453-3.813-4.677-5.824-7.174c-1.89-2.33-4.204-4.583-6.081-6.918l-5.975-7.028C280.4,29.867,264.817,11.071,258.737,2z"
		/>
	<path style="fill:#009846;" d="M207.927,134.354l-12.652-17.481c-5.555-8.488-11.74-20.692-15.192-30.302
		c-2.574-7.156-5.434-16.268-6.979-23.755c-0.79-3.864-2.079-9.067-2.402-12.953c-2.956,0.688-13.706,9.592-16.691,12.256
		l-9.452,8.273c-1.059,1.068-1.844,1.976-2.981,2.934c-1.419,1.183-1.848,1.297-3.237,2.674l-16.549,18.901
		c-1.738,2.104-3.439,4.536-4.98,6.835c-12.165,18.165-20.387,37.03-22.331,60.388c4.195,1.12,13.962,12.587,17.729,13.59
		c0.449-1.694,21.55-32.341,25.254-37.967c0.953-1.452,0.688-1.725,2.516-2.211c0.559,2.093,0.559,1.307,1.839,2.886
		c0.865,1.068,1.521,1.985,2.297,3.022c3.129,4.188,30.553,39.343,32.497,40.772c1.075-2.03,1.89-4.403,2.952-6.503
		c8.276-16.405,14.676-24.603,25.917-38.487C206.479,135.996,207.049,135.664,207.927,134.354z"/>
	<path style="fill:#009846;" d="M376.91,135.536c1.81,0.486,1.352,0.521,2.288,1.845l22.411,33.13
		c1.289,1.885,2.515,3.491,3.661,5.203l14.891-12.31c2.839-2.175,2.078-2.568,1.041-10.118
		c-3.69-26.728-19.026-52.825-37.653-71.652c-3.003-3.035-2.003-3.361-6.979-7.204L362.271,61.55
		c-2.646-2.316-13.324-11.044-16.087-11.688c-0.307,3.754-1.579,8.877-2.301,12.46c-0.882,4.389-1.961,8.048-3.142,12.23
		c-2.154,7.69-5.03,15.089-8.138,21.999c-4.375,9.737-12.971,24.827-20.24,32.923c-1.255,1.395-2.436,2.837-3.409,4.289
		c2.313,4.35,16.855,19.1,28.168,41.562c1.218,2.418,2.011,4.721,3.157,6.892l32.245-40.432
		C373.777,140.174,376.481,137.164,376.91,135.536z"/>
	<path style="fill:#009846;" d="M494.494,253.118c-3.829,0.318-37.149,18.179-42.437,21.377c-3.469,2.096-6.433,3.883-9.96,5.987
		c-3.595,2.145-6.304,4.046-9.831,6.129c-6.903,4.071-12.991,8.947-19.308,13.183c0.761,3.27,7.042,13.231,9.063,16.93
		c5.375,9.848,8.764,15.628,13.58,26.009c1.465,3.155,2.683,5.595,4.11,8.891c2.083,4.827,5.736,14.608,6.921,19.668l23.208-9.882
		c2.788-1.117,5.627-1.928,8.108-3.12c0-21.049,0.416-39.289,3.124-57.731c1.982-13.475,4.615-23.94,9.063-36.436
		C491.546,260.138,493.612,256.874,494.494,253.118z"/>
	<path style="fill:#009846;" d="M22.397,253.118c0.856,3.663,2.872,6.862,4.203,10.567c11.304,31.384,12.341,59.867,12.341,94.604
		c5.804,2.784,21.231,8.158,31.313,13.002c1.813-7.772,10.989-30.345,15.251-37.339l18.43-34.158
		c-1.532-1.027-2.691-1.998-4.497-3.185l-14.437-9.782c-3.422-2.043-6.253-3.989-9.834-6.129l-41.295-22.515
		C30.656,256.86,25.512,253.378,22.397,253.118z"/>
	<polygon style="fill:#009846;" points="494.494,253.118 495.085,253.118 494.599,252.425 	"/>
	<polygon style="fill:#009846;" points="22.397,253.118 22.397,252.527 21.708,253.022 	"/>
</g>
</svg>
